<svg width="20" height="20" viewBox="0 0 20 20" fill="none" xmlns="http://www.w3.org/2000/svg">
<path d="M9.99992 1.66666C6.33325 1.66666 3.33325 4.66666 3.33325 8.33332C3.33325 13.3333 9.99992 18.3333 9.99992 18.3333C9.99992 18.3333 16.6666 13.3333 16.6666 8.33332C16.6666 4.66666 13.6666 1.66666 9.99992 1.66666ZM9.99992 10.8333C9.33688 10.8333 8.70099 10.5699 8.23215 10.1011C7.76331 9.63225 7.49992 8.99636 7.49992 8.33332C7.49992 7.67028 7.76331 7.0344 8.23215 6.56556C8.70099 6.09672 9.33688 5.83332 9.99992 5.83332C10.663 5.83332 11.2988 6.09672 11.7677 6.56556C12.2365 7.0344 12.4999 7.67028 12.4999 8.33332C12.4999 8.99636 12.2365 9.63225 11.7677 10.1011C11.2988 10.5699 10.663 10.8333 9.99992 10.8333Z" fill="#D6006F"/>
</svg>
