<svg width="40" height="40" viewBox="0 0 40 40" fill="none" xmlns="http://www.w3.org/2000/svg">
<g clip-path="url(#clip0_72_3979)">
<path d="M20 39C30.4934 39 39 30.4934 39 20C39 9.50659 30.4934 1 20 1C9.50659 1 1 9.50659 1 20C1 30.4934 9.50659 39 20 39Z" stroke="#555555" stroke-width="2"/>
<path d="M14.9 12H12.6C12.2686 12 12 12.2686 12 12.6V14.9C12 15.2314 12.2686 15.5 12.6 15.5H14.9C15.2314 15.5 15.5 15.2314 15.5 14.9V12.6C15.5 12.2686 15.2314 12 14.9 12Z" fill="#555555"/>
<path d="M15.1 17H12.4C12.1791 17 12 17.1791 12 17.4V27.6C12 27.8209 12.1791 28 12.4 28H15.1C15.3209 28 15.5 27.8209 15.5 27.6V17.4C15.5 17.1791 15.3209 17 15.1 17Z" fill="#555555"/>
<path d="M17.5 16.9998H20.8V18.5998C21.4 17.5998 22.7 16.7998 24.2 16.7998C26.8 16.7998 28 18.3998 28 21.1998V27.9998H24.6V21.7998C24.6 20.4998 24.1 19.5998 22.8 19.5998C21.4 19.5998 20.9 20.6998 20.9 21.8998V27.9998H17.5V16.9998Z" fill="#555555"/>
</g>
<defs>
<clipPath id="clip0_72_3979">
<rect width="40" height="40" fill="white"/>
</clipPath>
</defs>
</svg>
