<svg width="40" height="40" viewBox="0 0 40 40" fill="none" xmlns="http://www.w3.org/2000/svg">
<rect x="1" y="1" width="38" height="38" rx="19" stroke="#555555" stroke-width="2"/>
<path d="M19.9997 13.3333C16.3197 13.3333 13.333 16.32 13.333 20C13.333 22.7266 14.973 25.0666 17.313 26.0866C17.2597 25.5666 17.2063 24.7733 17.333 24.2066C17.453 23.6866 18.1063 20.9 18.1063 20.9C18.1063 20.9 17.9063 20.5 17.9063 19.9133C17.9063 18.9866 18.4463 18.3 19.113 18.3C19.6797 18.3 19.9597 18.7266 19.9597 19.24C19.9597 19.8133 19.593 20.6666 19.4063 21.4666C19.2463 22.1333 19.7397 22.6733 20.3997 22.6733C21.593 22.6733 22.5063 21.42 22.5063 19.6066C22.5063 18.0066 21.353 16.8866 19.7063 16.8866C17.7997 16.8866 16.6797 18.32 16.6797 19.7933C16.6797 20.3666 16.8997 20.9866 17.1797 21.32C17.233 21.3866 17.2397 21.4466 17.2263 21.5133C17.173 21.7133 17.0597 22.18 17.0397 22.2733C17.013 22.3933 16.9463 22.42 16.8197 22.36C16.0063 21.98 15.4997 20.8 15.4997 19.8466C15.4997 17.8 16.9863 15.92 19.7863 15.92C22.033 15.92 23.7863 17.52 23.7863 19.66C23.7863 21.8933 22.3797 23.6933 20.4197 23.6933C19.7597 23.6933 19.1397 23.3533 18.9263 22.9466C18.9263 22.9466 18.5997 24.1866 18.5197 24.4866C18.373 25.04 17.9797 25.74 17.713 26.1666C18.6335 26.543 19.6265 26.7086 20.6193 26.6514C21.6121 26.5942 22.5795 26.3157 23.4507 25.8361C24.3218 25.3566 25.0747 24.6882 25.6541 23.88C26.2335 23.0718 26.6248 22.1442 26.7992 21.1652C26.9736 20.1862 26.9269 19.1806 26.6623 18.222C26.3977 17.2634 25.922 16.3761 25.2701 15.6252C24.6181 14.8743 23.8065 14.2787 22.8945 13.8822C21.9826 13.4856 20.9935 13.2981 19.9997 13.3333Z" fill="#555555"/>
</svg>
