<svg width="40" height="40" viewBox="0 0 40 40" fill="none" xmlns="http://www.w3.org/2000/svg">
<rect x="1" y="1" width="38" height="38" rx="19" stroke="#555555" stroke-width="2"/>
<path d="M25.0597 16.4602C24.3951 16.314 23.7939 15.9611 23.3424 15.4521C22.8909 14.9431 22.6122 14.3041 22.5464 13.6268V13.3335H20.4597V22.4468C20.4602 22.8512 20.3334 23.2455 20.0973 23.5738C19.8612 23.9021 19.5279 24.1478 19.1444 24.2761C18.7609 24.4045 18.3468 24.4089 17.9607 24.2887C17.5745 24.1686 17.236 23.93 16.993 23.6068C16.7753 23.3207 16.642 22.9794 16.6082 22.6215C16.5743 22.2636 16.6413 21.9033 16.8015 21.5815C16.9618 21.2597 17.2088 20.9891 17.5148 20.8003C17.8208 20.6116 18.1735 20.5122 18.533 20.5135C18.7318 20.5124 18.9297 20.5416 19.1197 20.6002V18.2668C18.8995 18.2282 18.6765 18.2082 18.453 18.2068C17.5677 18.0708 16.6622 18.2319 15.8781 18.6649C15.0939 19.0979 14.4753 19.7785 14.1189 20.6003C13.7625 21.422 13.6883 22.3387 13.9079 23.2071C14.1276 24.0755 14.6287 24.8467 15.333 25.4002C15.9037 25.9605 16.6273 26.3396 17.4129 26.4896C18.1985 26.6396 19.011 26.5538 19.7479 26.243C20.4849 25.9323 21.1134 25.4105 21.5544 24.7433C21.9955 24.076 22.2292 23.2933 22.2264 22.4935V17.6135C23.1484 18.2721 24.2532 18.6264 25.3864 18.6268V16.5602C25.2758 16.5326 25.1667 16.4992 25.0597 16.4602Z" fill="#555555"/>
</svg>
