<svg width="40" height="40" viewBox="0 0 40 40" fill="none" xmlns="http://www.w3.org/2000/svg">
<g clip-path="url(#clip0_72_3975)">
<path d="M20 39C30.4934 39 39 30.4934 39 20C39 9.50659 30.4934 1 20 1C9.50659 1 1 9.50659 1 20C1 30.4934 9.50659 39 20 39Z" stroke="#555555" stroke-width="2"/>
<path d="M26.8 14H13.2C12.5373 14 12 14.5373 12 15.2V24.8C12 25.4627 12.5373 26 13.2 26H26.8C27.4627 26 28 25.4627 28 24.8V15.2C28 14.5373 27.4627 14 26.8 14Z" stroke="#555555" stroke-width="1.6"/>
<path d="M12 15L20 21.5L28 15" stroke="#555555" stroke-width="1.6" stroke-linejoin="round"/>
</g>
<defs>
<clipPath id="clip0_72_3975">
<rect width="40" height="40" fill="white"/>
</clipPath>
</defs>
</svg>
