<svg width="40" height="40" viewBox="0 0 40 40" fill="none" xmlns="http://www.w3.org/2000/svg">
<rect x="1" y="1" width="38" height="38" rx="19" stroke="#555555" stroke-width="2"/>
<g clip-path="url(#clip0_72_3977)">
<path d="M23.333 13.3335H16.6663C14.8254 13.3335 13.333 14.8259 13.333 16.6668V23.3335C13.333 25.1744 14.8254 26.6668 16.6663 26.6668H23.333C25.174 26.6668 26.6663 25.1744 26.6663 23.3335V16.6668C26.6663 14.8259 25.174 13.3335 23.333 13.3335Z" stroke="#555555" stroke-width="1.33333" stroke-linecap="round" stroke-linejoin="round"/>
<path d="M22.6668 19.5802C22.7491 20.135 22.6543 20.7017 22.396 21.1995C22.1376 21.6974 21.7289 22.1011 21.2279 22.3533C20.7269 22.6055 20.1591 22.6933 19.6053 22.6042C19.0515 22.515 18.54 22.2536 18.1434 21.857C17.7467 21.4604 17.4853 20.9488 17.3962 20.395C17.3071 19.8412 17.3948 19.2735 17.647 18.7725C17.8992 18.2714 18.3029 17.8627 18.8008 17.6044C19.2987 17.346 19.8653 17.2513 20.4201 17.3335C20.9861 17.4175 21.51 17.6812 21.9146 18.0857C22.3192 18.4903 22.5829 19.0143 22.6668 19.5802Z" stroke="#555555" stroke-width="1.33333" stroke-linecap="round" stroke-linejoin="round"/>
<path d="M23.667 16.3335H23.6737" stroke="#555555" stroke-width="1.33333" stroke-linecap="round" stroke-linejoin="round"/>
</g>
<defs>
<clipPath id="clip0_72_3977">
<rect width="16" height="16" fill="white" transform="translate(12 12)"/>
</clipPath>
</defs>
</svg>
