<svg width="67" height="71" viewBox="0 0 67 71" fill="none" xmlns="http://www.w3.org/2000/svg">
<path d="M20.277 71C23.0504 71 25.6177 69.5139 27.01 67.1059L41.1888 42.5285C42.1745 40.8245 43.9845 39.7629 45.9448 39.7461L56.7432 39.6456C59.433 39.6232 62.0839 38.9863 64.4953 37.7906L66.0602 37.0141C67.3133 36.3939 67.3133 34.6061 66.0602 33.9859L64.4953 33.2093C62.0839 32.0137 59.433 31.3824 56.7432 31.3544L45.9448 31.2538C43.9789 31.2371 42.1689 30.1755 41.1888 28.4715L27.01 3.89415C25.6177 1.48613 23.0559 0 20.277 0C26.0577 10.6936 29.349 24.0521 30.5574 29.628C30.7245 30.3878 30.1398 31.103 29.3601 31.0974L28.7754 28.8123C28.4913 27.7005 27.3998 26.9965 26.2693 27.2032L23.2453 27.7508C22.8387 27.8234 22.4656 28.0357 22.1871 28.343C21.8975 28.6671 21.5021 28.8793 21.0789 28.9464L19.9874 29.114L21.207 29.3263C21.5857 29.3934 21.9365 29.5777 22.2094 29.8515L22.6661 30.3097L23.4179 31.0359L21.1291 31.0136C19.6588 31.0024 18.1941 31.1756 16.7629 31.5332L9.58434 33.3266L6.70517 25.5551C6.08701 23.8902 4.41071 22.8733 2.65645 23.0912L0 23.4264L4.18795 34.6731L2.18867 35.1759C1.8601 35.2597 1.8601 35.7235 2.18867 35.8073L4.18795 36.3101L0 47.5568L2.67875 47.8976C4.42744 48.1211 6.09816 47.1099 6.7219 45.4617L9.66231 37.6845L16.7629 39.4612C18.1885 39.8188 19.6533 39.992 21.1291 39.9808L23.4179 39.9584L22.6661 40.6847L22.2094 41.1429C21.9365 41.4166 21.5857 41.601 21.207 41.6681L19.9874 41.886L21.0789 42.0535C21.5077 42.1206 21.8975 42.3329 22.1871 42.657C22.4656 42.9643 22.8387 43.1765 23.2453 43.2492L26.2693 43.7967C27.3942 44.0034 28.4858 43.2994 28.7754 42.1876L29.3601 39.9026C30.1342 39.897 30.7189 40.6121 30.5574 41.3719C29.349 46.9478 26.0577 60.3064 20.277 71Z" fill="#640D5F"/>
</svg>
