<svg width="132" height="108" viewBox="0 0 132 108" fill="none" xmlns="http://www.w3.org/2000/svg">
<path d="M131.384 59.9975C132.484 47.5375 124.554 36.3974 113.644 35.0774L82.8736 31.3575C79.8236 30.9875 77.4036 28.3374 76.8736 24.8974C75.5836 16.4574 73.2537 9.2675 71.0537 3.8775C68.9537 -1.2925 62.5436 -1.2925 60.4336 3.8775C58.2436 9.2675 55.9137 16.4574 54.6137 24.8974C54.0837 28.3374 51.6637 30.9875 48.6137 31.3575L17.8437 35.0774C6.92366 36.3974 -1.00633 47.5375 0.103666 59.9975C0.233666 61.4875 1.38363 62.5875 2.69363 62.4875L53.2436 58.3675C54.5036 58.2675 55.6136 59.2774 55.8136 60.6974C56.9136 68.5374 58.1737 76.4675 59.4237 83.8275C59.7137 85.5375 58.5637 87.1175 57.0337 87.1175H49.9237C44.9137 87.1175 41.9837 93.7975 45.1737 98.2075C47.1337 100.917 50.5137 103.547 56.2337 105.337C56.9937 105.577 57.8136 105.397 58.4336 104.827L59.4137 103.927C60.8237 102.627 62.9336 103.487 63.3136 105.497L63.3637 105.767C63.9137 108.687 67.5637 108.687 68.1137 105.767L68.1637 105.497C68.5437 103.477 70.6536 102.627 72.0636 103.927L73.0437 104.827C73.6637 105.397 74.4736 105.577 75.2436 105.337C80.9636 103.547 84.3437 100.917 86.3037 98.2075C89.4937 93.7975 86.5637 87.1175 81.5537 87.1175H74.4436C72.9136 87.1175 71.7637 85.5375 72.0537 83.8275C73.3037 76.4675 74.5637 68.5274 75.6637 60.6974C75.8637 59.2774 76.9737 58.2675 78.2337 58.3675L128.784 62.4875C130.094 62.5975 131.244 61.4975 131.374 59.9975H131.384Z" fill="#F9C80E"/>
</svg>
